# xmcd CD database file
#
# Track frame offsets:
#	150
#	22073
#	36617
#
# Disc length: 774 seconds
#
# Revision: 1
# Processed by: cddbd v1.5.2PL0 Copyright (c) Steve Scherf et al.
# Submitted via: CDex 1.70beta2
#
DISCID=25030403
DTITLE=RIP SLYME - SPEED KING
DYEAR=2007
DGENRE=Hip-Hop
TTITLE0=SPEED KING
TTITLE1=obsession
TTITLE2=Wonderful (CHRISTMAS CLASSIC version)
EXTD=YEAR: 2007
EXTT0=
EXTT1=
EXTT2=
PLAYORDER=
